<svg id="color" xmlns="http://www.w3.org/2000/svg" xmlns:xlink="http://www.w3.org/1999/xlink" viewBox="0 0 48 48"><defs><style>.cls-1{fill:url(#linear-gradient);}.cls-2{fill:url(#linear-gradient-2);}.cls-3{fill:url(#linear-gradient-3);}.cls-4{fill:url(#linear-gradient-4);}.cls-5{fill:url(#linear-gradient-5);}</style><linearGradient id="linear-gradient" x1="7.27" y1="7.27" x2="41.76" y2="41.76" gradientUnits="userSpaceOnUse"><stop offset="0" stop-color="#91d443"/><stop offset="1" stop-color="#48bfe0"/></linearGradient><linearGradient id="linear-gradient-2" x1="15.85" y1="-1.31" x2="50.34" y2="33.18" xlink:href="#linear-gradient"/><linearGradient id="linear-gradient-3" x1="24.4" y1="-9.86" x2="58.89" y2="24.63" xlink:href="#linear-gradient"/><linearGradient id="linear-gradient-4" x1="-1.31" y1="15.85" x2="33.18" y2="50.34" xlink:href="#linear-gradient"/><linearGradient id="linear-gradient-5" x1="-9.86" y1="24.4" x2="24.63" y2="58.89" xlink:href="#linear-gradient"/></defs><title>color</title><path class="cls-1" d="M34.36,41.86a6.09,6.09,0,0,0,6.08,6.08h7.51V40.43a6.09,6.09,0,0,0-6.08-6.08H40.44a9.65,9.65,0,0,1-9.64-9.64V23.28a6.09,6.09,0,0,0-6.08-6.08H23.29a9.65,9.65,0,0,1-9.64-9.64h0V6.13A6.09,6.09,0,0,0,7.56,0H.05V7.56a6.09,6.09,0,0,0,6.08,6.08H7.56a9.65,9.65,0,0,1,9.64,9.64v1.42a6.09,6.09,0,0,0,6.08,6.08h1.43a9.65,9.65,0,0,1,9.64,9.64h0Z"/><path class="cls-2" d="M47.95,23.28a6.09,6.09,0,0,0-6.08-6.08H40.44a9.65,9.65,0,0,1-9.64-9.64V6.13A6.09,6.09,0,0,0,24.71,0h-7.5V7.64a6.09,6.09,0,0,0,6.08,6h1.43a9.65,9.65,0,0,1,9.64,9.64h0v1.42a6.09,6.09,0,0,0,6.06,6.08h7.53Z"/><path class="cls-3" d="M47.95,6.08a6.08,6.08,0,0,0-5.84-6H34.24V7.62a6.09,6.09,0,0,0,6.08,6h7.63Z"/><path class="cls-4" d="M.05,24.72A6.09,6.09,0,0,0,6.14,30.8H7.57a9.65,9.65,0,0,1,9.64,9.64v1.42A6.09,6.09,0,0,0,23.29,48h7.5V40.36a6.09,6.09,0,0,0-6.08-6H23.29a9.65,9.65,0,0,1-9.64-9.64h0V23.29a6.09,6.09,0,0,0-6.06-6.08H.05Z"/><path class="cls-5" d="M.05,41.92a6.08,6.08,0,0,0,5.84,6h7.87V40.38a6.09,6.09,0,0,0-6.08-6H.05Z"/></svg>